<svg width="20" height="20" viewBox="0 0 20 20" fill="none" xmlns="http://www.w3.org/2000/svg">
<g clip-path="url(#clip0)">
<path d="M19.2672 5.03133C18.8997 4.5823 18.3281 4.30939 17.7365 4.30939H5.30789L4.92045 2.86551C4.69562 2.02616 3.92073 1.44067 3.02225 1.44067H0.940743C0.593954 1.44067 0.307739 1.71359 0.307739 2.04599C0.307739 2.3776 0.593138 2.6513 0.940743 2.6513H3.02225C3.32838 2.6513 3.59386 2.84646 3.67517 3.1392L6.16486 12.6244C6.38969 13.4638 7.16457 14.0493 8.06306 14.0493H16.2058C17.1035 14.0493 17.8999 13.4638 18.104 12.6244L19.6347 6.61327C19.7774 6.0659 19.6554 5.48041 19.2672 5.03139L19.2672 5.03133ZM18.3902 6.33875L16.8596 12.3499C16.7783 12.6427 16.5128 12.8378 16.2067 12.8378H8.06308C7.75694 12.8378 7.49146 12.6427 7.41015 12.3499L5.63474 5.53918H17.7374C17.9415 5.53918 18.1456 5.63676 18.2684 5.79304C18.3904 5.94856 18.451 6.14373 18.3904 6.33889L18.3902 6.33875Z" fill="white"/>
<path d="M8.49224 14.8282C7.32909 14.8282 6.37012 15.7453 6.37012 16.8575C6.37012 17.9697 7.32917 18.8868 8.49224 18.8868C9.65539 18.8876 10.6144 17.9705 10.6144 16.8581C10.6144 15.7457 9.6553 14.828 8.49224 14.828V14.8282ZM8.49224 17.6581C8.02267 17.6581 7.65515 17.3066 7.65515 16.8576C7.65515 16.4086 8.02267 16.0571 8.49224 16.0571C8.96181 16.0571 9.32933 16.4086 9.32933 16.8576C9.32853 17.2876 8.94109 17.6581 8.49224 17.6581Z" fill="white"/>
<path d="M15.5126 14.8282C14.3495 14.8282 13.3905 15.7453 13.3905 16.8575C13.3905 17.9697 14.3496 18.8868 15.5126 18.8868C16.6757 18.8868 17.6347 17.9697 17.6347 16.8575C17.6148 15.746 16.6757 14.8282 15.5126 14.8282ZM15.5126 17.658C15.0431 17.658 14.6755 17.3066 14.6755 16.8576C14.6755 16.4085 15.0431 16.0571 15.5126 16.0571C15.9822 16.0571 16.3497 16.4085 16.3497 16.8576C16.3497 17.2875 15.9615 17.658 15.5126 17.658Z" fill="white"/>
</g>
<defs>
<clipPath id="clip0">
<rect width="19.3846" height="19.3846" fill="white" transform="translate(0.307739 0.307709)"/>
</clipPath>
</defs>
</svg>
